<svg xmlns="http://www.w3.org/2000/svg" viewBox="0 0 100 100"><rect width="100" height="100" rx="18" fill="#2496ed"/><text x="50" y="82" text-anchor="middle" font-family="monospace" font-size="11" font-weight="bold" fill="white">Docker</text><g fill="white" opacity="0.95"><rect x="18" y="42" width="14" height="12" rx="2"/><rect x="35" y="42" width="14" height="12" rx="2"/><rect x="52" y="42" width="14" height="12" rx="2"/><rect x="35" y="27" width="14" height="12" rx="2"/><rect x="52" y="27" width="14" height="12" rx="2"/><path d="M72 48 C78 48 82 52 82 58 C82 64 78 68 72 68 L20 68 C14 68 10 64 10 58 C10 54 12 51 16 49 L16 48 C16 40 22 34 30 34 C31 34 32 34 33 35" fill="none" stroke="white" stroke-width="2.5"/></g></svg>