<svg xmlns="http://www.w3.org/2000/svg" viewBox="0 0 1200 600">
  <defs>
    <linearGradient id="bg" x1="0%" y1="0%" x2="100%" y2="100%">
      <stop offset="0%" style="stop-color:#0d0d1a"/>
      <stop offset="100%" style="stop-color:#10101f"/>
    </linearGradient>
    <filter id="glow"><feGaussianBlur stdDeviation="3.5" result="b"/><feMerge><feMergeNode in="b"/><feMergeNode in="SourceGraphic"/></feMerge></filter>
    <filter id="softglow"><feGaussianBlur stdDeviation="6" result="b"/><feMerge><feMergeNode in="b"/><feMergeNode in="SourceGraphic"/></feMerge></filter>
  </defs>
  <!-- Background -->
  <rect width="1200" height="600" fill="url(#bg)"/>
  <!-- Subtle dot grid -->
  <pattern id="dots" x="0" y="0" width="30" height="30" patternUnits="userSpaceOnUse">
    <circle cx="15" cy="15" r="1" fill="#fa687e" opacity="0.06"/>
  </pattern>
  <rect width="1200" height="600" fill="url(#dots)"/>
  <!-- Accent corner glow -->
  <radialGradient id="cornerglow" cx="0%" cy="0%" r="60%">
    <stop offset="0%" style="stop-color:#fa687e;stop-opacity:0.12"/>
    <stop offset="100%" style="stop-color:#fa687e;stop-opacity:0"/>
  </radialGradient>
  <rect width="1200" height="600" fill="url(#cornerglow)"/>
  <!-- Top label strip -->
  <rect x="0" y="0" width="1200" height="3" fill="#fa687e" opacity="0.8"/>
  <!-- Project label pill -->
  <rect x="36" y="28" width="auto" height="24" rx="12" fill="#fa687e22" stroke="#fa687e55" stroke-width="1"/>
  <text x="50" y="44" font-family="'DM Mono',monospace" font-size="11" letter-spacing="0.14em" fill="#fa687e" opacity="0.9">MACHINE LEARNING · RECSYS</text>
  <!-- Title -->
  <text x="36" y="88" font-family="'Fraunces',Georgia,serif" font-size="34" font-weight="700" fill="#ffffff" opacity="0.95">Socially-Aware Recommendation</text>
  <!-- Main visual area -->
  
  <!-- Trust network -->
  <g stroke="#fa687e" stroke-width="1" opacity="0.2">
    <line x1="300" y1="210" x2="500" y2="165"/><line x1="300" y1="210" x2="420" y2="330"/>
    <line x1="300" y1="210" x2="200" y2="340"/><line x1="500" y1="165" x2="660" y2="245"/>
    <line x1="500" y1="165" x2="420" y2="330"/><line x1="420" y1="330" x2="560" y2="415"/>
    <line x1="420" y1="330" x2="660" y2="245"/><line x1="660" y1="245" x2="770" y2="165"/>
    <line x1="660" y1="245" x2="810" y2="345"/><line x1="770" y1="165" x2="910" y2="205"/>
    <line x1="200" y1="340" x2="290" y2="450"/><line x1="560" y1="415" x2="700" y2="465"/>
    <line x1="810" y1="345" x2="700" y2="465"/><line x1="810" y1="345" x2="960" y2="385"/>
    <line x1="910" y1="205" x2="1010" y2="285"/><line x1="1010" y1="285" x2="960" y2="385"/>
  </g>
  <!-- Trust edges (highlighted) -->
  <g stroke="#ffd580" stroke-width="2" opacity="0.7" fill="none">
    <line x1="300" y1="210" x2="500" y2="165"/>
    <line x1="500" y1="165" x2="660" y2="245"/>
  </g>
  <!-- Nodes -->
  <g filter="url(#glow)">
    <circle cx="300" cy="210" r="20" fill="#fa687e" opacity="0.85"/>
    <circle cx="500" cy="165" r="26" fill="#fa687e" opacity="0.95"/>
    <text x="500" y="169" text-anchor="middle" font-family="monospace" font-size="9" fill="white" font-weight="bold">You</text>
    <circle cx="420" cy="330" r="17" fill="#ffd580" opacity="0.8"/>
    <circle cx="660" cy="245" r="19" fill="#ffd580" opacity="0.8"/>
    <circle cx="200" cy="340" r="15" fill="#7ec8a4" opacity="0.7"/>
    <circle cx="770" cy="165" r="17" fill="#7ec8a4" opacity="0.75"/>
    <circle cx="810" cy="345" r="19" fill="#fa687e" opacity="0.65"/>
    <circle cx="560" cy="415" r="15" fill="#ffd580" opacity="0.6"/>
    <circle cx="910" cy="205" r="16" fill="#7ec8a4" opacity="0.7"/>
    <circle cx="290" cy="450" r="14" fill="#7ec8a4" opacity="0.55"/>
    <circle cx="700" cy="465" r="16" fill="#fa687e" opacity="0.6"/>
    <circle cx="960" cy="385" r="17" fill="#ffd580" opacity="0.65"/>
    <circle cx="1010" cy="285" r="15" fill="#7ec8a4" opacity="0.6"/>
  </g>
  <!-- Recommendation panel -->
  <rect x="1030" y="120" width="140" height="210" rx="12" fill="#ffffff0a" stroke="#fa687e30"/>
  <text x="1100" y="146" text-anchor="middle" font-family="monospace" font-size="9" fill="#fa687e">TOP PICKS</text>
  <g font-family="monospace" font-size="11" fill="#ffffff77">
    <text x="1048" y="174">★★★★★</text><text x="1048" y="192">Product A</text>
    <line x1="1048" y1="200" x2="1152" y2="200" stroke="#ffffff10"/>
    <text x="1048" y="218">★★★★☆</text><text x="1048" y="236">Product B</text>
    <line x1="1048" y1="244" x2="1152" y2="244" stroke="#ffffff10"/>
    <text x="1048" y="262">★★★★☆</text><text x="1048" y="280">Product C</text>
    <line x1="1048" y1="288" x2="1152" y2="288" stroke="#ffffff10"/>
    <text x="1048" y="306">★★★☆☆</text>
  </g>
  <!-- Legend -->
  <g>
    <circle cx="36" cy="130" r="8" fill="#fa687e"/><text x="52" y="135" font-family="monospace" font-size="10" fill="#fa687e">Trusted</text>
    <circle cx="36" cy="155" r="8" fill="#ffd580"/><text x="52" y="160" font-family="monospace" font-size="10" fill="#ffd580">2nd-hop</text>
    <circle cx="36" cy="180" r="8" fill="#7ec8a4"/><text x="52" y="185" font-family="monospace" font-size="10" fill="#7ec8a4">Peripheral</text>
  </g>
  <!-- Stats -->
  <g>
    <rect x="36" y="470" width="110" height="52" rx="8" fill="#fa687e14" stroke="#fa687e30"/>
    <text x="91" y="493" text-anchor="middle" font-family="Georgia,serif" font-size="18" font-weight="bold" fill="#fa687e">664K+</text>
    <text x="91" y="510" text-anchor="middle" font-family="monospace" font-size="8" fill="#ffffff44">REVIEWS</text>
    <rect x="158" y="470" width="110" height="52" rx="8" fill="#fa687e14" stroke="#fa687e30"/>
    <text x="213" y="493" text-anchor="middle" font-family="Georgia,serif" font-size="18" font-weight="bold" fill="#fa687e">35+</text>
    <text x="213" y="510" text-anchor="middle" font-family="monospace" font-size="8" fill="#ffffff44">FEATURES</text>
    <rect x="280" y="470" width="110" height="52" rx="8" fill="#fa687e14" stroke="#fa687e30"/>
    <text x="335" y="493" text-anchor="middle" font-family="Georgia,serif" font-size="18" font-weight="bold" fill="#fa687e">MRF</text>
    <text x="335" y="510" text-anchor="middle" font-family="monospace" font-size="8" fill="#ffffff44">MODEL</text>
  </g>
  <!-- Tech strip at bottom -->
  <rect x="0" y="548" width="1200" height="52" fill="#ffffff04" stroke="#ffffff08" stroke-width="1"/>
  <text x="36" y="578" font-family="'DM Mono',monospace" font-size="11" letter-spacing="0.1em" fill="#fa687e" opacity="0.7">PYTHON · MARKOV RANDOM FIELD · SCIKIT-LEARN · EPINIONS · HUGGING FACE</text>
</svg>